<svg version="1.1" id="Layer_1" xmlns="http://www.w3.org/2000/svg" xmlns:xlink="http://www.w3.org/1999/xlink" x="0px" y="0px"
	 width="100%" viewBox="0 0 620 402" enable-background="new 0 0 620 402" xml:space="preserve">
<path fill="#EC7861" opacity="1.000000" stroke="none" 
	d="
M339.000000,403.000000 
	C227.360504,403.000000 116.221001,402.983307 5.081595,403.082825 
	C1.836508,403.085724 0.891962,402.674835 0.895366,399.083374 
	C1.019811,267.782257 1.022269,136.481003 0.888526,5.179898 
	C0.884659,1.383618 1.900685,0.917354 5.318174,0.918874 
	C209.101639,1.009515 412.885132,1.008947 616.668579,0.922780 
	C620.044006,0.921353 621.118530,1.330572 621.114502,5.166706 
	C620.976929,136.467789 620.980591,267.769073 621.103149,399.070190 
	C621.106506,402.634644 620.204956,403.088928 616.931580,403.085205 
	C524.454468,402.979279 431.977234,403.000000 339.000000,403.000000 
z"/>
<path fill="#FEFBF9" opacity="1.000000" stroke="none" 
	d="
M363.787781,246.274567 
	C338.741302,203.195236 313.870880,160.437286 289.047974,117.651772 
	C288.185852,116.165764 286.135590,114.666534 287.397919,112.799316 
	C288.404175,111.310875 290.507019,112.178856 292.120270,112.176323 
	C310.282013,112.147758 328.444550,112.241791 346.605164,112.094566 
	C350.708649,112.061302 353.295868,113.295280 355.434296,117.029465 
	C364.869446,133.505585 374.600494,149.812714 384.284973,166.145096 
	C385.683868,168.504272 386.107697,170.698654 384.631989,173.154129 
	C382.060638,177.432724 379.644684,181.806259 377.013214,186.046661 
	C374.982452,189.319092 373.955322,186.873871 372.931946,185.134705 
	C363.979462,169.920639 354.722626,154.872879 346.246460,139.397659 
	C342.896484,133.281494 339.023682,130.357666 332.098053,131.533920 
	C329.827911,131.919464 327.427826,131.813446 325.114685,131.613785 
	C320.723572,131.234787 320.661011,132.912689 322.538940,136.148483 
	C334.743622,157.177963 346.874695,178.250183 359.044403,199.299973 
	C363.629944,207.231567 368.333221,215.096344 372.823120,223.081375 
	C374.695099,226.410645 375.858246,226.419067 377.722198,223.029755 
	C397.466553,187.127396 418.478821,151.953033 438.939728,116.461624 
	C440.771027,113.285088 442.732391,112.049622 446.386078,112.077034 
	C464.879150,112.215744 483.374237,112.086647 501.868591,112.064682 
	C507.417297,112.058090 507.618774,112.428474 504.908661,117.133423 
	C474.898041,169.234329 444.718079,221.239243 415.062927,273.541748 
	C410.356415,281.842590 405.102051,286.287140 395.484619,284.399902 
	C392.918579,283.896362 389.124268,285.775757 387.956390,283.669373 
	C386.495819,281.035187 389.572449,278.306488 391.012207,275.808960 
	C417.710968,229.495438 444.468811,183.216019 471.191833,136.916489 
	C473.888245,132.244797 473.538177,131.723618 468.125427,131.702225 
	C467.292389,131.698929 466.420898,131.886993 465.632080,131.705139 
	C455.311096,129.325821 449.944183,134.173874 445.202515,143.156845 
	C429.184937,173.501511 411.156464,202.726974 393.890015,232.376816 
	C388.275696,242.017670 382.883209,251.791962 377.592285,261.614563 
	C375.754822,265.025757 374.605438,265.120697 372.743744,261.715607 
	C369.948761,256.603638 366.907837,251.626144 363.787781,246.274567 
z"/>
<path fill="#FEFBF9" opacity="1.000000" stroke="none" 
	d="
M228.382935,127.452637 
	C209.820160,159.859589 190.532562,191.424988 172.722809,223.849548 
	C165.829453,236.399597 158.318115,248.609772 151.131302,260.999725 
	C150.426910,262.214081 148.781738,263.395325 149.784119,264.952484 
	C150.726883,266.416992 152.541626,265.599335 153.982895,265.708527 
	C154.478882,265.746124 155.001968,265.593170 155.478836,265.691498 
	C167.637115,268.198425 173.693680,262.024872 179.023102,251.667511 
	C194.268250,222.039459 211.951706,193.753220 228.769592,164.992477 
	C234.317535,155.504791 239.542160,145.828339 244.954193,136.260574 
	C245.725403,134.897171 245.788910,132.589203 247.830414,132.644012 
	C249.468094,132.688004 249.789932,134.735458 250.506256,135.977982 
	C267.310089,165.125732 283.995789,194.341843 300.869019,223.449265 
	C311.730286,242.185654 322.862701,260.764801 333.847260,279.429901 
	C334.575775,280.667755 336.074158,281.926605 335.241516,283.438202 
	C334.370148,285.020020 332.533051,284.195129 331.101746,284.202545 
	C313.103119,284.295868 295.100647,284.186493 277.108002,284.557495 
	C272.112610,284.660492 269.174042,283.062744 266.715607,278.754578 
	C257.467865,262.548767 247.936310,246.504257 238.432556,230.445801 
	C237.080917,228.161926 237.033310,226.207764 238.406296,223.948822 
	C240.914246,219.822464 243.350479,215.644730 245.618698,211.383087 
	C247.212112,208.389282 248.236649,208.599579 249.865341,211.407745 
	C258.809479,226.829208 268.173706,242.016754 276.738251,257.643829 
	C280.065216,263.714294 283.934448,266.732452 290.842987,265.712128 
	C292.961212,265.399261 295.168640,265.688568 297.335205,265.705231 
	C302.582611,265.745575 302.832001,265.365662 300.331055,260.980896 
	C294.720215,251.143585 289.146240,241.284760 283.466309,231.487411 
	C272.687836,212.895462 261.893585,194.312225 250.999252,175.788101 
	C247.905228,170.527206 247.557907,170.553894 244.448563,175.918274 
	C225.904953,207.910431 207.115265,239.766953 189.124115,272.067780 
	C184.129990,281.034058 178.933212,285.504395 167.973892,284.643219 
	C152.399872,283.419464 136.665405,284.155304 121.000305,284.228027 
	C116.855888,284.247314 115.907188,283.238037 118.113937,279.448395 
	C138.231339,244.901138 158.538864,210.459961 178.214966,175.662186 
	C189.285477,156.083679 200.586548,136.644455 211.726166,117.110199 
	C213.895294,113.306442 216.334869,111.931168 220.466293,112.234108 
	C224.442734,112.525681 228.460846,112.506744 232.447357,112.328026 
	C236.129257,112.162949 235.996140,113.742912 234.622314,116.218521 
	C232.602722,119.857788 230.594147,123.503143 228.382935,127.452637 
z"/>
</svg>